<?xml version="1.0" encoding="UTF-8"?>
<svg xmlns="http://www.w3.org/2000/svg" xmlns:xlink="http://www.w3.org/1999/xlink" fill-opacity="1" color-rendering="auto" color-interpolation="auto" stroke="black" text-rendering="auto" stroke-linecap="square" width="473" stroke-miterlimit="10" stroke-opacity="1" shape-rendering="auto" fill="black" stroke-dasharray="none" font-weight="normal" stroke-width="1" height="444" font-family="'Dialog'" font-style="normal" stroke-linejoin="miter" font-size="12" stroke-dashoffset="0" image-rendering="auto">
  <!--Generated by ySVG-->
  <defs id="genericDefs"/>
  <g>
    <g stroke-miterlimit="1.45" font-family="sans-serif" transform="matrix(1,0,0,1,171,534)" stroke-linecap="butt">
      <text x="207.7363" xml:space="preserve" y="-342.8984" clip-path="url(#clipPath2)" stroke="none">sandbox</text>
    </g>
    <g stroke-miterlimit="1.45" font-family="sans-serif" transform="matrix(1,0,0,1,171,534)" stroke-linecap="butt">
      <text x="207.2266" xml:space="preserve" y="-328.7656" clip-path="url(#clipPath2)" stroke="none">proccess</text>
      <rect x="179" y="-425.5" clip-path="url(#clipPath2)" fill="none" width="107.5" stroke-dasharray="6,2" height="65"/>
      <text x="73.3936" xml:space="preserve" y="-237.3984" clip-path="url(#clipPath2)" stroke="none">EPIC server</text>
      <rect x="32" y="-461" clip-path="url(#clipPath2)" fill="none" width="147" stroke-dasharray="6,2" height="206"/>
      <text x="-114.0996" xml:space="preserve" y="-270.3984" clip-path="url(#clipPath2)" stroke="none">hsj.jar</text>
      <rect fill="none" x="-142" width="92" height="120" y="-408" clip-path="url(#clipPath2)"/>
      <text x="-123.2988" xml:space="preserve" y="-237.3984" clip-path="url(#clipPath2)" stroke="none">HS server</text>
      <rect x="-156" y="-425.5" clip-path="url(#clipPath2)" fill="none" width="120" stroke-dasharray="6,2" height="170.5"/>
    </g>
    <g fill="rgb(255,204,0)" transform="matrix(1,0,0,1,171,534)" stroke="rgb(255,204,0)">
      <rect x="-142" width="92" height="30" y="-373" clip-path="url(#clipPath2)" stroke="none"/>
    </g>
    <g font-size="13" stroke-miterlimit="1.45" font-family="sans-serif" transform="matrix(1,0,0,1,171,534)" stroke-linecap="butt">
      <text x="-129.6807" xml:space="preserve" y="-353.0869" clip-path="url(#clipPath2)" stroke="none">HS utilities</text>
      <rect fill="none" x="-142" width="92" height="30" y="-373" clip-path="url(#clipPath2)"/>
    </g>
    <g fill="rgb(255,204,0)" transform="matrix(1,0,0,1,171,534)" stroke="rgb(255,204,0)">
      <rect x="-142" width="92" height="30" y="-348" clip-path="url(#clipPath2)" stroke="none"/>
    </g>
    <g font-size="13" stroke-miterlimit="1.45" font-family="sans-serif" transform="matrix(1,0,0,1,171,534)" stroke-linecap="butt">
      <text x="-129.0903" xml:space="preserve" y="-328.0869" clip-path="url(#clipPath2)" stroke="none">HS objects</text>
      <rect fill="none" x="-142" width="92" height="30" y="-348" clip-path="url(#clipPath2)"/>
    </g>
    <g fill="rgb(255,204,0)" transform="matrix(1,0,0,1,171,534)" stroke="rgb(255,204,0)">
      <rect x="-142" width="92" height="30" y="-318" clip-path="url(#clipPath2)" stroke="none"/>
    </g>
    <g font-size="13" stroke-miterlimit="1.45" font-family="sans-serif" transform="matrix(1,0,0,1,171,534)" stroke-linecap="butt">
      <text x="-109.092" xml:space="preserve" y="-298.0869" clip-path="url(#clipPath2)" stroke="none">DBA</text>
      <rect fill="none" x="-142" width="92" height="30" y="-318" clip-path="url(#clipPath2)"/>
    </g>
    <g fill="rgb(255,204,0)" transform="matrix(1,0,0,1,171,534)" stroke="rgb(255,204,0)">
      <rect x="-142" width="92" height="30" y="-408" clip-path="url(#clipPath2)" stroke="none"/>
    </g>
    <g font-size="13" stroke-miterlimit="1.45" font-family="sans-serif" transform="matrix(1,0,0,1,171,534)" stroke-linecap="butt">
      <text x="-125.5737" xml:space="preserve" y="-388.0869" clip-path="url(#clipPath2)" stroke="none">HS server</text>
      <rect fill="none" x="-142" width="92" height="30" y="-408" clip-path="url(#clipPath2)"/>
    </g>
    <g fill="silver" transform="matrix(1,0,0,1,171,534)" stroke="silver">
      <rect x="73.5" width="92" height="30" y="-373" clip-path="url(#clipPath2)" stroke="none"/>
    </g>
    <g font-size="13" stroke-miterlimit="1.45" font-family="sans-serif" transform="matrix(1,0,0,1,171,534)" stroke-linecap="butt">
      <text x="85.8193" xml:space="preserve" y="-353.0869" clip-path="url(#clipPath2)" stroke="none">HS utilities</text>
      <rect fill="none" x="73.5" width="92" height="30" y="-373" clip-path="url(#clipPath2)"/>
    </g>
    <g fill="silver" transform="matrix(1,0,0,1,171,534)" stroke="silver">
      <rect x="73.5" width="92" height="30" y="-348" clip-path="url(#clipPath2)" stroke="none"/>
    </g>
    <g font-size="13" stroke-miterlimit="1.45" font-family="sans-serif" transform="matrix(1,0,0,1,171,534)" stroke-linecap="butt">
      <text x="86.4097" xml:space="preserve" y="-328.0869" clip-path="url(#clipPath2)" stroke="none">HS objects</text>
      <rect fill="none" x="73.5" width="92" height="30" y="-348" clip-path="url(#clipPath2)"/>
    </g>
    <g fill="silver" transform="matrix(1,0,0,1,171,534)" stroke="silver">
      <rect x="45.5" width="120" height="30" y="-318" clip-path="url(#clipPath2)" stroke="none"/>
    </g>
    <g font-size="13" stroke-miterlimit="1.45" font-family="sans-serif" transform="matrix(1,0,0,1,171,534)" stroke-linecap="butt">
      <text x="92.408" xml:space="preserve" y="-298.0869" clip-path="url(#clipPath2)" stroke="none">DBA</text>
      <rect fill="none" x="45.5" width="120" height="30" y="-318" clip-path="url(#clipPath2)"/>
    </g>
    <g fill="rgb(255,204,0)" transform="matrix(1,0,0,1,171,534)" stroke="rgb(255,204,0)">
      <rect x="73.5" width="92" height="30" y="-408" clip-path="url(#clipPath2)" stroke="none"/>
    </g>
    <g font-size="13" stroke-miterlimit="1.45" font-family="sans-serif" transform="matrix(1,0,0,1,171,534)" stroke-linecap="butt">
      <text x="106.0144" xml:space="preserve" y="-388.0869" clip-path="url(#clipPath2)" stroke="none">EPIC</text>
      <rect fill="none" x="73.5" width="92" height="30" y="-408" clip-path="url(#clipPath2)"/>
    </g>
    <g fill="url(#linearGradient1)" stroke-miterlimit="1.45" transform="matrix(1,0,0,1,171,534)" stroke-linecap="butt" stroke="url(#linearGradient1)">
      <path d="M-33.5 -201 C-31.7 -209 24.7 -209 26.5 -201 L26.5 -177 C24.7 -169 -31.7 -169 -33.5 -177 Z" clip-path="url(#clipPath2)" stroke="none"/>
      <path fill="none" d="M-33.5 -201 C-31.7 -209 24.7 -209 26.5 -201 L26.5 -177 C24.7 -169 -31.7 -169 -33.5 -177 Z" clip-path="url(#clipPath2)" stroke="black"/>
      <path fill="none" d="M26.5 -201 C24.7 -193 -31.7 -193 -33.5 -201" clip-path="url(#clipPath2)" stroke="black"/>
      <text x="-23.1143" y="-151.3984" clip-path="url(#clipPath2)" fill="black" font-family="sans-serif" stroke="none" xml:space="preserve">handle</text>
      <text x="-11.4453" y="-137.2656" clip-path="url(#clipPath2)" fill="black" font-family="sans-serif" stroke="none" xml:space="preserve">DB</text>
    </g>
    <g transform="matrix(1,0,0,1,134.687,15.246)">
      <g clip-path="url(#clipPath3)">
        <svg xmlns:a="http://ns.adobe.com/AdobeSVGViewerExtensions/3.0/" xml:space="preserve" opacity="1" margin-top="0" indent="0" writing-mode="lr-tb" stop-color="rgb(0, 0, 0)" shape-rendering="auto" glyph-orientation-horizontal="0deg" color-profile="auto" lighting-color="rgb(255, 255, 255)" color="rgb(0, 0, 0)" font-weight="400" alignment-baseline="auto" font-style="normal" version="1.1" color-interpolation-filters="linearrgb" text-anchor="start" stroke-linecap="butt" color-interpolation="srgb" font-variant="normal" margin-left="0" solid-color="rgb(0, 0, 0)" word-spacing="normal" fill-opacity="1" text-rendering="auto" clip-path="none" text-decoration="none" letter-spacing="normal" viewBox="-0.064 -0.075 68 46" glyph-orientation-vertical="auto" margin-right="0" display="inline" font-size-adjust="none" margin-bottom="0" overflow="visible" fill="rgb(0, 0, 0)" font-stretch="normal" stroke-dasharray="none" stroke-miterlimit="4" stop-opacity="1" color-rendering="auto" font-size="12" pointer-events="visiblepainted" mask="none" direction="ltr" baseline-shift="baseline" enable-background="new -0.064 -0.075 68 46" fill-rule="nonzero" image-rendering="auto" solid-opacity="1" stroke-dashoffset="0" width="68px" marker-end="none" clip="auto" cursor="auto" stroke="none" filter="none" visibility="visible" kerning="auto" stroke-width="1" font-family="&quot;Arial&quot;,&quot;Helvetica&quot;,sans-serif" flood-opacity="1" clip-rule="nonzero" src="none" height="46px" text-align="inherit" line-height="normal" unicode-bidi="normal" stroke-linejoin="miter" stroke-opacity="1" flood-color="rgb(0, 0, 0)" dominant-baseline="auto" marker-start="none" x="0px" marker-mid="none" y="0px">
<defs>
<linearGradient x1="-33.5" gradientUnits="userSpaceOnUse" x2="26.5" y1="-209" y2="-169" id="linearGradient1" spreadMethod="pad">
              <stop stop-opacity="1" stop-color="rgb(232,238,247)" offset="0%"/>
              <stop stop-opacity="1" stop-color="rgb(183,201,227)" offset="100%"/>
            </linearGradient>
            <linearGradient x1="192.75" gradientUnits="userSpaceOnUse" x2="272.75" y1="-413" y2="-373" id="linearGradient2" spreadMethod="pad">
              <stop stop-opacity="1" stop-color="rgb(232,238,247)" offset="0%"/>
              <stop stop-opacity="1" stop-color="rgb(183,201,227)" offset="100%"/>
            </linearGradient>
            <clipPath clipPathUnits="userSpaceOnUse" id="clipPath1">
              <path d="M0 0 L473 0 L473 444 L0 444 L0 0 Z"/>
            </clipPath>
            <clipPath clipPathUnits="userSpaceOnUse" id="clipPath2">
              <path d="M-171 -534 L302 -534 L302 -90 L-171 -90 L-171 -534 Z"/>
            </clipPath>
            <clipPath clipPathUnits="userSpaceOnUse" id="clipPath3">
              <path d="M-134.687 -15.246 L338.313 -15.246 L338.313 428.754 L-134.687 428.754 L-134.687 -15.246 Z"/>
            </clipPath>
          </defs>
<radialGradient gradientTransform="matrix(1.15 0 0 1 -526.6598 -1982.4023)" gradientUnits="userSpaceOnUse" r="21.6001" cx="478.8413" id="svg1.SVGID_1_" cy="1991.2729" xml:id="svg1.SVGID_1_">
	<stop offset="0" style="stop-color:#F2F2F2"/>
	<stop offset="1" style="stop-color:#8D8D8D"/>
</radialGradient>
<path fill="url(#svg1.SVGID_1_)" d="M10.263,1.903c0-0.987,0.807-1.794,1.794-1.794h43.279c0.986,0,1.795,0.807,1.795,1.794v26.978  c0,0.987-0.809,1.794-1.795,1.794h-43.28c-0.987,0-1.794-0.807-1.794-1.794L10.263,1.903L10.263,1.903z"/>
<path stroke-linecap="round" display="none" fill="none" stroke-linejoin="round" d="  M10.263,1.903c0-0.987,0.807-1.794,1.794-1.794h43.279c0.986,0,1.795,0.807,1.795,1.794v26.978c0,0.987-0.809,1.794-1.795,1.794  h-43.28c-0.987,0-1.794-0.807-1.794-1.794L10.263,1.903L10.263,1.903z" stroke="#3C89C9" stroke-width="0.2185" stroke-miterlimit="10"/>
<radialGradient gradientTransform="matrix(1.1935 0 0 1 -509.6731 -1982.4023)" gradientUnits="userSpaceOnUse" r="47.8462" cx="455.894" cy="1983.9624" id="svg1.SVGID_2_" fx="493.5344" fy="1977.5143" xml:id="svg1.SVGID_2_">
	<stop offset="0" style="stop-color:#4D4D4D"/>
	<stop offset="1" style="stop-color:#999999"/>
</radialGradient>
<path fill="url(#svg1.SVGID_2_)" d="M11.18,2.819c0-0.987,0.807-1.794,1.794-1.794h41.649c0.986,0,1.795,0.807,1.795,1.794v24.943  c0,0.985-0.809,1.794-1.795,1.794H12.974c-0.987,0-1.794-0.809-1.794-1.794V2.819z"/>
<radialGradient gradientTransform="matrix(1.1923 0 0 1 -510.1314 -1982.4023)" gradientUnits="userSpaceOnUse" r="30.6699" cx="456.8843" id="svg1.SVGID_3_" cy="1984.0386" xml:id="svg1.SVGID_3_">
	<stop offset="0" style="stop-color:#9CD7FF"/>
	<stop offset="1" style="stop-color:#3C89C9"/>
</radialGradient>
<path fill="url(#svg1.SVGID_3_)" d="M11.689,3.228c0-0.987,0.807-1.794,1.794-1.794h40.633c0.986,0,1.795,0.807,1.795,1.794v24.126  c0,0.986-0.809,1.794-1.795,1.794H13.483c-0.987,0-1.794-0.809-1.794-1.794V3.228z"/>
<path fill="#F2F2F2" opacity="0.24" d="M11.689,21.472V3.228c0-0.987,0.807-1.794,1.794-1.794h40.633  c0.986,0,1.795,0.807,1.795,1.794v9.454c0,0.987-10.518,5.21-18.256,6.795C29.917,21.062,11.689,21.472,11.689,21.472z"/>
<linearGradient gradientTransform="matrix(1 0 0 -1 -97.6001 -165.0498)" x1="131.3501" x2="131.3501" gradientUnits="userSpaceOnUse" y1="-212.2612" y2="-170.6274" id="svg1.SVGID_4_" xml:id="svg1.SVGID_4_">
	<stop offset="0" style="stop-color:#4D4D4D"/>
	<stop offset="0.0667" style="stop-color:#717171"/>
	<stop offset="0.069" style="stop-color:#757575"/>
	<stop offset="0.0831" style="stop-color:#8C8C8C"/>
	<stop offset="0.0996" style="stop-color:#9E9E9E"/>
	<stop offset="0.1196" style="stop-color:#AAAAAA"/>
	<stop offset="0.1466" style="stop-color:#B1B1B1"/>
	<stop offset="0.2121" style="stop-color:#B3B3B3"/>
	<stop offset="1" style="stop-color:#C5C5C5"/>
</linearGradient>
<path fill="url(#svg1.SVGID_4_)" d="M58.385,32.234c-0.689-0.856-2.154-1.559-3.254-1.559H12c-1.1,0-2.552,0.711-3.227,1.579  l-7.546,9.717C0,43.55,0.042,43.785,0,44.55v0.125c0.056,0.393,0.311,1.002,1.248,1.002h64.75c0.75,0.002,1.5-0.252,1.5-1.002V44.55  c0-0.813,0-0.813-1.254-2.559L58.385,32.234z"/>
<path fill="#F2F2F2" d="M58.385,32.234c-0.689-0.856-2.154-1.559-3.254-1.559H12  c-1.1,0-2.552,0.711-3.227,1.579l-7.055,9.085l58.098-7.33L58.385,32.234z" enable-background="new    " opacity="0.23"/>
<path fill="#6E6E6E" d="M59.75,37.205c0.344,0.431,0.172,0.783-0.377,0.783H8.249c-0.55,0-0.742-0.369-0.427-0.819l2.786-3.986  c0.315-0.45,1.023-0.819,1.573-0.819h42.729c0.551,0,1.279,0.354,1.623,0.783L59.75,37.205z"/>
<path fill="#6E6E6E" d="M40.43,41.906c0.072,0.217-0.057,0.395-0.285,0.395H26.727c-0.229,0-0.364-0.18-0.3-0.398l0.822-2.826  c0.064-0.221,0.303-0.399,0.532-0.399h11.167c0.229,0,0.475,0.179,0.547,0.396L40.43,41.906z"/>
</svg>
      </g>
    </g>
    <g stroke-miterlimit="1.45" font-family="sans-serif" transform="matrix(1,0,0,1,171,534)" stroke-linecap="butt">
      <text x="-15.0801" xml:space="preserve" y="-455.3984" clip-path="url(#clipPath2)" stroke="none">user</text>
    </g>
    <g fill="rgb(255,204,0)" transform="matrix(1,0,0,1,171,534)" stroke="rgb(255,204,0)">
      <rect x="73.5" width="92" height="35" y="-443" clip-path="url(#clipPath2)" stroke="none"/>
    </g>
    <g font-size="13" stroke-miterlimit="1.45" font-family="sans-serif" transform="matrix(1,0,0,1,171,534)" stroke-linecap="butt">
      <text x="95.9788" xml:space="preserve" y="-428.2422" clip-path="url(#clipPath2)" stroke="none">Tomcat</text>
      <text x="100.8665" xml:space="preserve" y="-412.9316" clip-path="url(#clipPath2)" stroke="none">Jersey</text>
      <rect fill="none" x="73.5" width="92" height="35" y="-443" clip-path="url(#clipPath2)"/>
    </g>
    <g fill="url(#linearGradient2)" stroke-miterlimit="1.45" transform="matrix(1,0,0,1,171,534)" stroke-linecap="butt" stroke="url(#linearGradient2)">
      <rect x="192.75" width="80" height="40" y="-413" clip-path="url(#clipPath2)" stroke="none"/>
      <rect x="192.75" y="-413" clip-path="url(#clipPath2)" fill="none" width="80" height="40" stroke="black"/>
      <path fill="none" d="M202.75 -413 L202.75 -373 M262.75 -413 L262.75 -373 M202.75 -413 Z" clip-path="url(#clipPath2)" stroke="black"/>
      <text x="216.4082" y="-388.4648" clip-path="url(#clipPath2)" fill="black" font-family="sans-serif" stroke="none" xml:space="preserve">script</text>
    </g>
    <g stroke-miterlimit="1.45" font-family="sans-serif" transform="matrix(1,0,0,1,171,534)" stroke-linecap="butt">
      <text x="-55.0938" xml:space="preserve" y="-110.3984" clip-path="url(#clipPath2)" stroke="none">PostrgeSQL server</text>
      <rect x="-39.5" y="-225" clip-path="url(#clipPath2)" fill="none" width="74" stroke-dasharray="6,2" height="97"/>
      <path fill="none" d="M60 -318.0142 L60 -380 L65.6844 -381.242" clip-path="url(#clipPath2)"/>
      <path d="M73.5 -382.9496 L60.7093 -385.2729 L64.7074 -381.0285 L62.8438 -375.5034 Z" clip-path="url(#clipPath2)" stroke="none"/>
      <path fill="none" d="M65.5 -393 L-42 -393" clip-path="url(#clipPath2)"/>
      <path d="M73.5 -393 L61.5 -398 L64.5 -393 L61.5 -388 Z" clip-path="url(#clipPath2)" stroke="none"/>
      <path d="M-50 -393 L-38 -388 L-41 -393 L-38 -398 Z" clip-path="url(#clipPath2)" stroke="none"/>
      <path fill="none" d="M-22.6098 -212.5516 L-78.7883 -281.7878" clip-path="url(#clipPath2)"/>
      <path d="M-17.5692 -206.3394 L-21.2475 -218.8081 L-23.2399 -213.3281 L-29.0128 -212.5073 Z" clip-path="url(#clipPath2)" stroke="none"/>
      <path d="M-83.8289 -288 L-80.1506 -275.5312 L-78.1582 -281.0112 L-72.3853 -281.832 Z" clip-path="url(#clipPath2)" stroke="none"/>
      <path fill="none" d="M12.8127 -206.061 L85.6293 -282.2178" clip-path="url(#clipPath2)"/>
      <path d="M91.1579 -288 L79.251 -282.782 L84.9382 -281.495 L86.4788 -275.8712 Z" clip-path="url(#clipPath2)" stroke="none"/>
      <path fill="none" d="M-34.1946 -495.785 L-96 -495.785 L-96 -408" clip-path="url(#clipPath2)"/>
      <path d="M-26.1946 -495.785 L-38.1946 -500.785 L-35.1946 -495.785 L-38.1946 -490.785 Z" clip-path="url(#clipPath2)" stroke="none"/>
      <text x="-89.8232" xml:space="preserve" y="-502.3163" clip-path="url(#clipPath2)" stroke="none">resolve</text>
      <path fill="none" d="M29.1792 -495.785 L119.5 -495.785 L119.5 -451.0258" clip-path="url(#clipPath2)"/>
      <path d="M21.1792 -495.785 L33.1792 -490.785 L30.1792 -495.785 L33.1792 -500.785 Z" clip-path="url(#clipPath2)" stroke="none"/>
      <path d="M119.5 -443.0258 L124.5 -455.0258 L119.5 -452.0258 L114.5 -455.0258 Z" clip-path="url(#clipPath2)" stroke="none"/>
      <text x="63.3403" xml:space="preserve" y="-502.3163" clip-path="url(#clipPath2)" stroke="none">CRUD</text>
      <path fill="none" d="M184.7331 -393 L165.5 -393" clip-path="url(#clipPath2)"/>
      <path d="M192.7331 -393 L180.7331 -398 L183.7331 -393 L180.7331 -388 Z" clip-path="url(#clipPath2)" stroke="none"/>
    </g>
  </g>
</svg>
